<svg id="Layer_1" data-name="Layer 1" xmlns="http://www.w3.org/2000/svg" viewBox="0 0 100 100"><title>Artboard 16 copy</title><path  fill="#3A5199" d="M68.5,8h-36A9.51,9.51,0,0,0,23,17.5v65A9.51,9.51,0,0,0,32.5,92h36A9.51,9.51,0,0,0,78,82.5v-65A9.51,9.51,0,0,0,68.5,8ZM75,82.5A6.51,6.51,0,0,1,68.5,89h-36A6.51,6.51,0,0,1,26,82.5v-65A6.51,6.51,0,0,1,32.5,11h36A6.51,6.51,0,0,1,75,17.5Z"/><path d="M61.5,16h-22a1.5,1.5,0,0,0,0,3h22a1.5,1.5,0,0,0,0-3Z"/><path d="M50,74.5a4.5,4.5,0,0,0,0,9h0A4.51,4.51,0,0,0,54.5,79h0A4.49,4.49,0,0,0,50,74.5Zm0,6a1.68,1.68,0,0,1-1.07-.44A1.5,1.5,0,0,1,50,77.5h0a1.5,1.5,0,0,1,0,3Z"/></svg>